<svg width="24" height="24" viewBox="0 0 24 24" fill="none" xmlns="http://www.w3.org/2000/svg">
<mask id="mask0_1_2186" style="mask-type:luminance" maskUnits="userSpaceOnUse" x="0" y="0" width="24" height="24">
<path d="M0 0H24V24H0V0Z" fill="white"/>
</mask>
<g mask="url(#mask0_1_2186)">
<mask id="mask1_1_2186" style="mask-type:luminance" maskUnits="userSpaceOnUse" x="0" y="-1" width="25" height="25">
<path d="M1.83471 4.30121L1.8346 4.30142C0.138273 7.49511 1.31844 10.611 2.83843 12.2817C2.83857 12.2818 2.8387 12.282 2.83883 12.2821L12.1663 22.5088L21.2671 12.3513C22.6986 10.5213 23.2175 8.6395 22.9189 6.53392L22.9189 6.53383C22.4999 3.57741 20.3948 1.4138 17.9528 1.10996C16.441 0.923783 14.9811 1.40645 13.8211 2.50763L1.83471 4.30121ZM1.83471 4.30121C2.75609 2.56553 4.17423 1.44539 5.66097 1.11662C7.2576 0.766712 8.94466 1.20888 10.2981 2.38415L1.83471 4.30121ZM12.1632 4.7122L11.3286 3.52495C11.0349 3.10724 10.6899 2.72476 10.2984 2.38444L12.1632 4.7122ZM12.1632 4.7122L12.9754 3.5095M12.1632 4.7122L12.9754 3.5095M12.9754 3.5095C13.2234 3.1422 13.5062 2.80676 13.8209 2.50781L12.9754 3.5095Z" stroke="white" stroke-width="2"/>
</mask>
<g mask="url(#mask1_1_2186)">
<path d="M0.951448 3.83233C-0.99454 7.49607 0.376602 11.0621 2.09921 12.9551L12.1729 24L22.0336 12.9943C23.6359 10.9582 24.2501 8.79844 23.909 6.39351C23.4376 3.06693 21.039 0.485942 18.0757 0.117544C16.2582 -0.106488 14.5028 0.481541 13.1324 1.7826C12.7636 2.13295 12.4341 2.52424 12.1467 2.94985C11.806 2.46526 11.4063 2.02247 10.9542 1.62943C9.37853 0.26103 7.37275 -0.282544 5.44605 0.139991C3.6212 0.54316 1.98347 1.88823 0.951448 3.83233Z" stroke="black" stroke-width="2"/>
</g>
</g>
</svg>
